<svg xmlns="http://www.w3.org/2000/svg" viewBox="0 0 215.49 215.52"><title>Bitcoin logo</title><path d="M616.52,538.07a107.72,107.72,0,1,1-78.47-130.6A107.73,107.73,0,0,1,616.52,538.07Z" transform="translate(-404.25 -404.24)" style="fill:#f7931a"/><path d="M559.49,496.65c2.15-14.34-8.77-22-23.7-27.19L540.64,450l-11.82-2.95L524.1,466c-3.11-.77-6.3-1.51-9.47-2.23l4.75-19-11.82-2.95-4.85,19.42c-2.57-.59-5.1-1.17-7.55-1.77v-.06l-16.3-4.07-3.15,12.63s8.77,2,8.59,2.13c4.79,1.2,5.65,4.36,5.51,6.88l-5.52,22.13a9.79,9.79,0,0,1,1.23.39l-1.25-.31-7.73,31a4.3,4.3,0,0,1-5.42,2.81c.12.17-8.59-2.15-8.59-2.15l-5.87,13.53,15.39,3.84c2.86.72,5.67,1.47,8.43,2.18L475.59,570l11.81,2.95,4.85-19.44c3.23.88,6.36,1.68,9.42,2.44l-4.83,19.35,11.82,2.95,4.89-19.61c20.16,3.82,35.32,2.28,41.7-16C560.4,528,555,519.53,544.4,514c7.72-1.78,13.54-6.86,15.1-17.36Zm-27,37.88c-3.65,14.68-28.37,6.74-36.39,4.75l6.49-26C510.6,515.26,536.3,519.22,532.48,534.53Zm3.66-38.09c-3.33,13.36-23.91,6.57-30.58,4.91l5.89-23.61C518.11,479.4,539.61,482.51,536.14,496.44Z" transform="translate(-404.25 -404.24)" style="fill:#fff"/></svg>