<svg xmlns="http://www.w3.org/2000/svg" width="256" height="256" viewBox="0 0 256 256"><defs><style>.a{fill:#2775ca;}.b{fill:#fff;}</style></defs><title>USD Coin logo - Brandlogos.net</title><circle class="a" cx="128" cy="128" r="128"/><path class="b" d="M488,601a3.78,3.78,0,0,1-5.2,3.8,96.07,96.07,0,0,1,0-183c2.9-.9,5.2.8,5.2,3.8v7.5a5.73,5.73,0,0,1-3.4,5,80,80,0,0,0,0,150.3,5.73,5.73,0,0,1,3.4,5Z" transform="translate(-384 -384)"/><path class="b" d="M520,573.3a4,4,0,0,1-4,4h-8a4,4,0,0,1-4-4V560.7c-17.5-2.4-26-12.1-28.3-25.5a3.69,3.69,0,0,1,3.7-4.3h9.1a4.06,4.06,0,0,1,3.9,3.2c1.7,7.9,6.3,14,20.3,14,10.3,0,17.7-5.8,17.7-14.4s-4.3-11.9-19.5-14.4c-22.4-3-33-9.8-33-27.3,0-13.5,10.3-24.1,26.1-26.3V453.3a4,4,0,0,1,4-4h8a4,4,0,0,1,4,4V466c12.9,2.3,21.1,9.6,23.8,21.8a3.67,3.67,0,0,1-3.7,4.4h-8.4a4,4,0,0,1-3.8-2.9c-2.3-7.7-7.8-11.1-17.4-11.1-10.6,0-16.1,5.1-16.1,12.3,0,7.6,3.1,11.4,19.4,13.7,22,3,33.4,9.3,33.4,28,0,14.2-10.6,25.7-27.1,28.3v12.8Z" transform="translate(-384 -384)"/><path class="b" d="M541.2,604.8c-2.9.9-5.2-.8-5.2-3.8v-7.5a5.21,5.21,0,0,1,3.4-5,79.91,79.91,0,0,0,0-150.2,5.73,5.73,0,0,1-3.4-5v-7.5a3.78,3.78,0,0,1,5.2-3.8,95.93,95.93,0,0,1,0,182.8Z" transform="translate(-384 -384)"/></svg>